<svg version="1.1" id="Layer_1" xmlns="http://www.w3.org/2000/svg" xmlns:xlink="http://www.w3.org/1999/xlink" x="0px" y="0px"
	 width="100%" viewBox="0 0 1024 560" enable-background="new 0 0 1024 560" xml:space="preserve">
<path fill="#000000" opacity="1.000000" stroke="none" 
	d="
M5.500038,1.000000 
	C6.000000,48.800446 6.000000,96.600891 6.000000,144.304321 
	C15.957852,144.304321 25.290890,144.240036 34.622128,144.341385 
	C37.628902,144.374069 40.218094,145.345749 40.577377,150.071289 
	C29.367748,151.790939 18.114634,151.323502 6.637322,151.219284 
	C6.062534,155.541458 5.860167,159.772491 6.725176,164.158295 
	C14.748328,165.217026 22.611166,164.569229 30.470125,164.585007 
	C34.321671,164.592728 39.158585,163.551163 40.829071,170.173386 
	C29.568119,174.148270 18.193630,171.433014 6.536965,171.977676 
	C6.115136,176.209381 5.868840,180.902893 6.612829,185.395355 
	C15.777827,187.464325 24.518431,185.345093 33.250053,185.714523 
	C36.619850,185.857086 39.610847,186.247284 40.645679,191.160202 
	C29.609900,195.739014 18.250015,191.801315 6.892118,193.249695 
	C4.879910,199.484741 6.243067,201.549942 13.478782,201.583481 
	C28.130333,201.651428 42.784203,201.771957 57.432850,201.566513 
	C61.656765,201.507263 63.797020,202.638687 63.422516,207.104340 
	C63.284359,208.751694 63.288689,210.415710 63.312267,212.070908 
	C63.358032,215.283020 61.735970,216.405045 58.633083,216.395340 
	C43.641434,216.348389 28.649036,216.496597 13.657679,216.421341 
	C6.788391,216.386871 5.977654,217.153442 6.132583,224.089691 
	C6.199697,227.094376 6.847294,228.597244 10.391617,228.477982 
	C18.159981,228.216537 25.944811,228.469086 33.722832,228.456863 
	C36.531582,228.452438 39.028618,228.914917 40.528473,231.662125 
	C41.099129,232.707367 41.932835,233.466660 43.175293,233.771576 
	C44.983658,234.215378 47.720787,233.364899 48.115791,236.075500 
	C48.616512,239.511581 48.889893,243.113632 47.886375,246.479919 
	C47.234463,248.666763 44.821026,248.095932 43.080513,248.110016 
	C32.584236,248.195114 22.083242,248.367188 11.592419,248.130035 
	C7.368660,248.034561 5.895817,249.539902 6.110023,253.613342 
	C6.337260,257.934570 6.275311,262.277771 6.171537,266.607361 
	C6.099996,269.592163 7.335639,270.740601 10.324282,270.745728 
	C13.023430,270.750366 16.297567,269.750732 17.420717,273.759888 
	C22.454020,268.698090 37.616150,269.697327 40.863377,275.716034 
	C29.814369,280.928528 18.366295,276.233093 6.773002,278.156433 
	C5.476011,282.078857 6.373056,286.769073 6.343221,291.328186 
	C15.799049,293.294159 24.713377,291.508453 33.595665,291.869202 
	C36.894588,292.003143 39.506477,292.562469 40.703114,297.282806 
	C29.599503,301.353577 18.143589,297.984344 6.493912,299.493042 
	C5.952250,303.761078 6.126426,308.501770 6.400057,313.493408 
	C16.029970,313.475494 25.500813,311.812897 34.939011,313.525391 
	C36.075607,313.731598 37.300777,313.743652 38.324509,314.203094 
	C39.586510,314.769501 40.467308,315.986847 40.341190,317.397949 
	C40.227081,318.674683 38.988800,319.447052 37.872669,319.583649 
	C28.595440,320.719269 19.277817,320.338470 9.968509,320.126862 
	C8.431600,320.091919 8.136412,318.371216 6.651916,317.461731 
	C5.962346,323.238556 6.095204,328.754608 6.447779,335.051178 
	C11.865217,333.876312 16.660519,336.002716 21.983912,334.999054 
	C26.787275,334.093506 31.998652,335.306854 37.025482,335.652710 
	C39.234234,335.804657 40.100868,337.342010 40.628120,340.365326 
	C29.573057,343.589935 18.332888,342.164307 6.636091,341.981079 
	C5.799920,346.711273 6.139894,351.749054 6.430949,356.897736 
	C16.547195,356.707062 26.249477,356.794891 35.947010,357.526001 
	C38.561150,357.723114 39.930645,358.733673 40.512119,361.098419 
	C37.163719,364.126587 15.742372,365.620270 6.646521,363.406921 
	C5.967963,368.355011 6.038731,373.210022 6.482623,377.950226 
	C14.508794,379.972046 22.173172,378.395569 29.748623,378.894318 
	C33.604675,379.148193 38.655590,377.671722 40.996662,383.889771 
	C29.773676,387.812134 18.738274,387.631897 7.005584,385.638062 
	C5.604502,390.502228 6.209551,395.511963 6.448014,400.160034 
	C16.380302,402.235046 25.965429,399.494202 35.493542,401.151184 
	C38.084011,401.601715 39.945251,402.220734 40.785191,406.033325 
	C29.453703,409.441833 18.081678,407.893677 6.188373,407.214508 
	C6.188373,409.331787 6.185585,411.959747 6.188906,414.587677 
	C6.198131,421.886200 6.199134,421.886200 13.463772,422.712860 
	C15.135159,422.903046 15.135159,422.903046 17.506132,425.179718 
	C23.071180,420.429291 38.198673,421.824982 40.506256,427.301788 
	C35.738522,430.800293 10.782647,431.111359 6.236259,427.110138 
	C6.236259,439.610535 6.231648,451.508453 6.240999,463.406372 
	C6.242481,465.292725 6.851580,466.860565 9.091491,466.565948 
	C13.178130,466.028473 17.111399,467.663971 21.343851,466.760315 
	C25.976013,465.771362 30.827667,467.394409 35.649708,466.892700 
	C38.501026,466.595947 40.231510,468.394165 40.477383,471.344940 
	C34.033215,475.196625 10.470158,474.887512 6.551390,470.748993 
	C6.280064,477.163666 5.884609,483.368408 6.463604,489.499817 
	C10.581738,490.235840 15.086936,486.717651 17.899551,492.059723 
	C19.226053,489.931610 20.391418,488.719818 22.880674,489.047516 
	C27.277302,489.626312 31.748987,488.482605 36.205544,489.559540 
	C38.616566,490.142151 40.583664,491.167145 40.389893,493.616089 
	C40.221916,495.738983 37.882423,496.065430 36.035671,496.131012 
	C26.294096,496.476868 16.551262,496.642120 6.286435,495.699310 
	C6.286435,507.698944 6.289107,519.658325 6.284485,531.617737 
	C6.283382,534.473022 8.182014,534.575500 10.358003,534.692139 
	C13.049549,534.836365 16.349142,533.624939 17.260351,537.084534 
	C24.572935,532.389099 32.197735,535.812012 39.567879,534.603271 
	C39.567879,537.210449 39.567879,539.117249 39.567879,541.356506 
	C30.080532,541.356506 20.807081,541.293213 11.535656,541.402161 
	C9.297244,541.428467 7.679480,540.868835 6.451373,538.797607 
	C6.451373,545.231750 6.451373,551.665894 6.451373,558.241943 
	C10.344402,557.241699 14.207691,555.500244 17.871227,558.999573 
	C19.584644,557.899231 21.155407,556.529785 23.647945,557.077026 
	C28.131065,558.061462 32.725052,557.351929 37.257969,557.166138 
	C40.244339,557.043701 40.439674,558.155640 39.173485,560.694824 
	C26.333334,561.000000 13.666667,561.000000 1.000000,561.000000 
	C1.000000,374.333344 1.000000,187.666672 1.000000,1.000000 
	C2.333359,1.000000 3.666717,1.000000 5.500038,1.000000 
z"/>
<path fill="#000000" opacity="1.000000" stroke="none" 
	d="
M1010.027100,375.050690 
	C1011.033997,360.467743 1012.040955,345.884796 1013.127502,330.149353 
	C1015.043213,333.928162 1014.539917,336.894409 1014.354736,339.640778 
	C1013.707214,349.247040 1019.432434,358.055969 1017.174683,368.147644 
	C1020.219971,366.259918 1022.362366,367.152985 1024.688843,368.916321 
	C1025.000000,370.388885 1025.000000,371.777802 1025.000000,373.583344 
	C1021.584778,374.282349 1022.996094,378.086914 1021.093750,379.542480 
	C1018.645996,378.719971 1020.727661,375.582642 1018.336792,374.711060 
	C1016.396973,375.765259 1016.711609,379.050323 1013.565491,379.500458 
	C1011.939148,379.005280 1010.825073,377.578888 1010.174805,375.291931 
	C1010.010803,375.019806 1010.027039,375.050690 1010.027100,375.050690 
z"/>
<path fill="#000000" opacity="1.000000" stroke="none" 
	d="
M408.203003,214.837341 
	C403.777374,214.706085 404.622345,211.533249 404.703644,209.053497 
	C404.889923,203.371140 408.055298,198.167450 406.988007,192.230591 
	C409.967529,196.042725 406.005829,201.440964 410.651520,204.586502 
	C414.255371,202.415344 413.578705,198.937637 413.707733,195.683472 
	C413.827759,192.656967 413.177216,189.530930 414.647919,185.600891 
	C417.976776,191.787048 414.387878,198.220963 417.460144,203.438477 
	C420.957214,202.602432 420.543549,199.157150 422.457825,196.845078 
	C423.803162,200.582932 424.934540,203.726379 426.142273,207.081970 
	C430.685059,205.749786 427.276001,201.319244 429.589966,198.877869 
	C434.979675,216.840271 433.894806,234.527924 429.518738,252.531006 
	C425.610107,238.844681 426.905945,225.035309 425.378815,211.400604 
	C425.378815,218.827026 425.380310,226.253464 425.377563,233.679886 
	C425.377014,235.179367 425.346771,236.678925 425.354767,238.178314 
	C425.366180,240.326218 424.971863,242.551620 422.446930,242.623535 
	C419.814880,242.698502 418.811523,240.645401 418.807861,238.179977 
	C418.796478,230.526474 418.803711,222.872940 418.803711,215.176849 
	C415.604797,215.997437 416.963531,219.591492 414.584259,221.588638 
	C413.826660,217.854828 411.482666,215.212433 411.421997,211.474091 
	C409.925140,212.249542 410.179718,214.405640 408.203003,214.837341 
M423.089386,226.335571 
	C422.796448,219.404724 424.163910,212.430817 422.506653,205.527344 
	C420.796417,216.510849 421.445679,227.497391 421.907349,238.486069 
	C424.291382,234.839478 423.038727,231.003342 423.089386,226.335571 
M415.844147,210.316223 
	C415.534943,209.026001 416.261536,207.472733 414.706757,206.051193 
	C413.695221,208.798599 413.584656,211.134445 414.695221,213.859039 
	C415.908630,212.922440 415.771118,211.928055 415.844147,210.316223 
z"/>
<path fill="#000000" opacity="1.000000" stroke="none" 
	d="
M279.133301,306.683289 
	C277.436829,303.798584 276.827148,301.069580 276.844788,297.954163 
	C276.972015,275.507996 276.928711,253.060867 276.953461,230.614075 
	C276.955109,229.120361 277.013550,227.621536 277.148193,226.134399 
	C277.342804,223.985550 278.811646,223.486374 280.680939,223.552353 
	C282.614807,223.620621 283.232147,224.798508 283.249603,226.513351 
	C283.285126,230.004593 283.353210,233.495850 283.351837,236.987076 
	C283.344208,256.440918 283.149902,275.897064 283.415985,295.346985 
	C283.485870,300.455597 281.984344,305.028809 280.763153,309.934753 
	C278.872070,309.682556 279.309052,308.172638 279.133301,306.683289 
z"/>
<path fill="#000000" opacity="1.000000" stroke="none" 
	d="
M717.428589,184.941345 
	C717.486877,190.774094 713.992371,195.651245 714.564148,201.391144 
	C713.483765,194.264893 710.168274,187.698959 710.630310,182.622849 
	C711.255188,186.294266 709.442017,191.712860 707.446716,197.189392 
	C701.946167,192.025192 702.368469,164.896454 707.385986,154.823425 
	C708.397339,161.758057 711.435852,167.479630 710.098267,174.821411 
	C714.869751,171.652008 711.533264,166.626114 714.343811,163.351868 
	C715.792664,165.248611 715.164001,167.097977 715.344910,168.781906 
	C715.530151,170.505188 714.799438,172.506866 716.950562,173.809143 
	C719.737122,172.886902 720.739197,170.562607 721.121338,167.248001 
	C725.098022,174.409378 727.796936,180.759766 721.908875,187.295731 
	C719.419189,186.313980 718.584778,184.381561 717.885254,182.188812 
	C717.734558,182.987213 717.583862,183.785629 717.428589,184.941345 
M706.048035,182.274811 
	C706.273804,184.322800 705.513611,186.518219 707.329590,189.150543 
	C707.329590,181.432999 707.329590,174.490921 707.329590,167.548859 
	C706.904297,167.544357 706.478943,167.539856 706.053650,167.535355 
	C706.053650,172.138107 706.053650,176.740845 706.048035,182.274811 
z"/>
<path fill="#000000" opacity="1.000000" stroke="none" 
	d="
M313.317291,243.035629 
	C313.307343,257.528717 313.298126,271.527374 313.286652,285.526062 
	C313.285706,286.692535 313.257874,287.859070 313.263184,289.025482 
	C313.272797,291.135925 312.447540,292.742676 310.172577,292.684875 
	C307.977905,292.629059 307.016632,291.070953 307.018097,288.948822 
	C307.030609,270.951691 306.784180,252.947174 307.283295,234.963409 
	C307.388947,231.155762 309.140320,227.138351 310.189880,223.100296 
	C311.238861,229.656647 314.360626,235.757645 313.317291,243.035629 
z"/>
<path fill="#000000" opacity="1.000000" stroke="none" 
	d="
M471.744690,204.465790 
	C471.608948,201.458588 473.317505,199.828140 474.762665,197.799454 
	C477.522125,200.278519 478.379181,203.177048 478.345093,206.676193 
	C478.195740,221.999313 478.442841,237.330215 478.039215,252.644928 
	C477.886383,258.444092 475.518158,264.067078 475.958282,269.875061 
	C474.156342,270.110931 473.877106,269.336334 473.817749,268.467590 
	C473.076050,257.613220 471.123962,246.876785 471.663147,235.887543 
	C472.168640,225.585541 471.751160,215.238251 471.744690,204.465790 
z"/>
<path fill="#000000" opacity="1.000000" stroke="none" 
	d="
M328.174316,188.085968 
	C328.152222,202.072601 328.053894,215.570862 328.160339,229.067520 
	C328.187805,232.551895 327.441162,235.554123 324.835663,238.459747 
	C322.698181,235.703720 321.643890,232.906265 321.671997,229.443680 
	C321.795135,214.280365 321.821442,199.114761 321.674774,183.951981 
	C321.643616,180.728119 322.893402,178.294693 324.677795,175.688126 
	C328.529114,178.993484 328.301178,183.310410 328.174316,188.085968 
z"/>
<path fill="#000000" opacity="1.000000" stroke="none" 
	d="
M485.333557,188.076950 
	C485.337463,199.043289 486.516113,209.690109 485.034149,219.952698 
	C483.304871,231.927963 483.689362,243.897629 483.240662,255.903137 
	C480.975769,255.714020 481.011169,254.297882 481.111115,253.281326 
	C482.572174,238.424194 478.825897,223.841141 478.843231,209.067078 
	C478.852783,200.918701 478.851990,192.769089 479.005585,184.622849 
	C479.051788,182.173203 478.090790,178.632706 482.233093,178.609085 
	C486.564056,178.584381 484.997070,182.234192 485.315125,184.596939 
	C485.447021,185.576767 485.333527,186.589645 485.333557,188.076950 
z"/>
<path fill="#000000" opacity="1.000000" stroke="none" 
	d="
M441.654663,286.999939 
	C441.654877,279.849976 441.778320,273.196747 441.602020,266.551453 
	C441.517334,263.358398 442.340210,260.729767 444.758911,258.259857 
	C447.284698,260.544647 448.396637,263.123932 448.373627,266.507111 
	C448.249268,284.793640 448.822418,303.107513 447.949188,321.354248 
	C447.635406,327.911743 446.237030,334.691345 445.787109,341.494537 
	C443.785095,341.116333 443.881927,340.183929 443.761749,339.429840 
	C441.016113,322.203308 441.736420,304.835297 441.654663,286.999939 
M443.957886,294.500000 
	C443.957886,304.330048 443.957886,314.160095 443.957886,323.990143 
	C444.392059,323.981903 444.826263,323.973663 445.260437,323.965424 
	C445.260437,304.216461 445.260437,284.467529 445.260437,264.718567 
	C444.828308,264.714874 444.396179,264.711151 443.964050,264.707428 
	C443.964050,274.304962 443.964050,283.902466 443.957886,294.500000 
z"/>
<path fill="#000000" opacity="1.000000" stroke="none" 
	d="
M486.715881,177.516876 
	C487.484009,160.120773 484.776825,142.998077 488.764038,125.297478 
	C493.395905,134.713348 493.550781,135.868698 493.102142,156.767075 
	C492.878510,167.187607 494.275391,177.800064 489.161652,187.540451 
	C488.164551,184.571808 489.212311,180.774490 486.715881,177.516876 
z"/>
<path fill="#000000" opacity="1.000000" stroke="none" 
	d="
M343.304077,168.392517 
	C344.401276,179.057556 340.063080,188.739258 340.633942,198.919174 
	C337.076141,176.006821 334.413330,153.137939 339.972443,130.294281 
	C340.807159,130.011215 341.070709,130.524658 341.146362,130.971985 
	C343.217010,143.213089 343.843567,155.540863 343.304077,168.392517 
z"/>
<path fill="#000000" opacity="1.000000" stroke="none" 
	d="
M541.067383,101.381271 
	C541.470764,100.115044 541.756653,99.196259 542.136536,97.975136 
	C546.538269,108.371605 546.787720,143.821426 542.605530,149.212280 
	C539.516907,147.166229 538.812012,144.227493 538.857727,140.690842 
	C538.990906,130.381058 538.953857,120.067619 538.844360,109.757088 
	C538.813232,106.826820 539.350098,104.170258 541.067383,101.381271 
z"/>
<path fill="#000000" opacity="1.000000" stroke="none" 
	d="
M1010.002075,375.005676 
	C1008.868042,377.631439 1007.742737,380.271332 1006.592468,382.969727 
	C1004.544495,381.880035 1006.378479,378.100098 1002.572205,378.348907 
	C1002.524658,382.539276 1001.403809,386.542053 999.088257,390.827087 
	C997.523499,387.603638 995.724670,385.007721 995.744629,381.602234 
	C995.793274,373.290344 995.761169,364.977966 995.781494,356.665833 
	C995.787292,354.285095 995.654602,351.737122 999.203796,351.901306 
	C1002.419434,352.050079 1002.165222,354.469513 1002.177673,356.623444 
	C1002.210266,362.247101 1002.188660,367.871063 1002.838501,373.630280 
	C1007.584778,370.720276 1004.125427,365.286591 1006.519043,361.498871 
	C1008.861084,365.656067 1005.240784,371.038300 1009.747009,374.813843 
	C1010.027039,375.050690 1010.010803,375.019806 1010.002075,375.005676 
z"/>
<path fill="#000000" opacity="1.000000" stroke="none" 
	d="
M980.652283,371.177551 
	C981.400391,364.469818 983.441833,358.447601 983.714783,351.996796 
	C982.265076,360.162354 987.685120,367.073029 987.248352,375.069733 
	C986.768433,383.857361 987.227844,392.693756 987.183228,401.508423 
	C987.145264,409.008148 988.318909,416.720459 983.390808,423.234314 
	C980.824768,418.023407 980.378662,412.116577 980.461060,406.048889 
	C980.616821,394.584625 980.588745,383.117859 980.652283,371.177551 
M984.248047,410.602783 
	C984.402405,403.475586 984.614868,396.349060 984.694397,389.221039 
	C984.771240,382.335999 984.711060,375.449432 984.711060,368.563538 
	C984.151917,368.594543 983.592834,368.625580 983.033691,368.656616 
	C983.033691,383.946442 983.033691,399.236267 983.033691,415.033722 
	C984.813171,413.641541 984.344299,412.431335 984.248047,410.602783 
z"/>
<path fill="#000000" opacity="1.000000" stroke="none" 
	d="
M977.182861,375.063782 
	C974.533142,375.438110 975.724487,371.444336 972.403564,371.843109 
	C972.629272,379.056213 971.792603,386.390686 969.207947,393.970428 
	C962.155457,378.274719 967.733948,363.011627 968.672913,347.734406 
	C972.642639,352.674011 967.088928,360.235687 973.354187,364.609314 
	C976.221558,362.713623 974.551636,359.364624 976.826721,356.713806 
	C976.990417,363.166565 981.719421,368.720642 977.182861,375.063782 
z"/>
<path fill="#000000" opacity="1.000000" stroke="none" 
	d="
M393.351074,152.632477 
	C396.275970,166.614960 396.877258,210.256485 392.170471,220.698364 
	C390.959290,216.242493 388.714233,212.903214 388.736664,208.697479 
	C388.818359,193.387802 387.819092,177.985458 389.233002,162.804855 
	C389.988556,154.692978 390.464386,146.345169 392.168915,138.189911 
	C393.874634,142.815552 393.114838,147.534317 393.351074,152.632477 
M391.238739,176.502213 
	C391.238739,186.643845 391.238739,196.785477 391.238739,206.927109 
	C394.271515,203.061737 394.222168,163.351883 391.241669,159.942520 
	C391.241669,165.129578 391.241669,170.316620 391.238739,176.502213 
z"/>
<path fill="#000000" opacity="1.000000" stroke="none" 
	d="
M218.959366,270.014343 
	C216.444031,258.286316 217.069031,246.850983 216.838669,235.448898 
	C216.729080,230.023895 220.206787,225.539841 220.022461,220.048676 
	C220.932098,226.654099 223.972794,232.630707 223.406082,239.420441 
	C222.853912,246.036301 224.523056,253.131210 222.700439,259.268433 
	C220.702286,265.996735 222.590622,272.740326 220.658035,279.855682 
	C217.910217,276.662231 219.382919,273.404633 218.959366,270.014343 
z"/>
<path fill="#000000" opacity="1.000000" stroke="none" 
	d="
M253.318909,271.292480 
	C252.776810,284.229187 254.999237,296.899780 250.639877,309.068939 
	C245.625183,302.897919 245.306549,272.289246 250.616547,259.907288 
	C250.599792,263.814789 253.171906,266.965973 253.318909,271.292480 
z"/>
<path fill="#000000" opacity="1.000000" stroke="none" 
	d="
M733.928345,179.005035 
	C735.634888,175.353882 737.702576,175.238220 739.873291,177.839691 
	C742.732300,177.287643 742.794067,174.674286 743.975708,172.942535 
	C748.635925,179.780197 748.872375,198.492569 744.188782,216.152130 
	C743.602844,210.764877 740.559021,206.021774 740.754883,200.388519 
	C740.950745,194.755600 740.797852,189.110565 740.171021,183.462433 
	C740.171021,185.433212 740.219910,187.405518 740.157959,189.374344 
	C740.089722,191.543716 738.854492,192.929520 736.739929,192.801453 
	C734.897949,192.689896 733.850647,191.262756 733.831909,189.351242 
	C733.799377,186.031677 733.837524,182.711411 733.928345,179.005035 
M744.179565,204.754364 
	C744.571289,204.538696 745.295898,204.338150 745.306519,204.105179 
	C745.656982,196.384384 746.041504,188.657166 744.562256,180.974548 
	C742.681946,188.728790 743.595520,196.569748 744.179565,204.754364 
z"/>
<path fill="#000000" opacity="1.000000" stroke="none" 
	d="
M525.719788,175.489624 
	C526.505554,169.364075 521.977417,164.330963 523.834534,158.470795 
	C521.772156,164.408096 519.298401,170.164001 520.059204,176.605820 
	C516.216064,168.598877 516.142090,154.397751 519.599182,144.191757 
	C520.832336,145.470581 520.217896,147.046936 520.338989,148.473129 
	C520.477844,150.108444 520.063293,152.215775 522.171265,152.628174 
	C524.414551,153.067078 525.155457,151.123611 525.742493,149.336151 
	C525.886963,148.896423 526.178101,148.504898 526.692627,147.553238 
	C534.206909,157.896881 527.772949,167.970062 527.782654,177.879639 
	C525.630188,178.037598 525.922546,176.789658 525.719788,175.489624 
z"/>
<path fill="#000000" opacity="1.000000" stroke="none" 
	d="
M386.131897,183.318695 
	C382.545685,183.707016 381.816223,181.493637 381.802002,178.873001 
	C381.748718,169.048431 381.786011,159.223389 381.768921,149.398575 
	C381.765289,147.323914 382.320007,145.735703 384.752655,145.685410 
	C386.728821,145.644547 388.017914,146.614563 388.020111,148.631805 
	C388.031738,159.285751 387.998688,169.940216 387.858734,180.592911 
	C387.847717,181.432053 386.902405,182.258911 386.131897,183.318695 
z"/>
<path fill="#000000" opacity="1.000000" stroke="none" 
	d="
M9.528219,123.967987 
	C18.189331,124.680283 26.449249,123.788574 34.709969,123.836121 
	C37.498390,123.852173 39.943085,124.920883 40.483032,128.260376 
	C39.138596,130.246674 37.055222,131.036072 34.924965,131.077835 
	C27.298161,131.227356 19.659672,131.347916 12.039668,131.079742 
	C6.882806,130.898239 6.030612,128.497467 9.528219,123.967987 
z"/>
<path fill="#000000" opacity="1.000000" stroke="none" 
	d="
M37.202110,451.436005 
	C28.177153,451.806244 19.474030,452.053741 10.761339,451.654175 
	C8.177673,451.535675 7.202627,450.063721 7.210503,447.833099 
	C7.218300,445.624573 8.584665,444.417450 10.777030,444.720520 
	C18.992409,445.856323 27.197680,444.337799 35.407333,444.733673 
	C37.814152,444.849731 39.618484,445.804108 40.351669,448.126495 
	C41.118172,450.554443 38.746788,450.538116 37.202110,451.436005 
z"/>
<path fill="#000000" opacity="1.000000" stroke="none" 
	d="
M24.627224,518.983765 
	C19.846426,518.935486 15.401924,518.869873 10.964754,519.020386 
	C8.257095,519.112183 7.359139,517.546082 7.317241,515.340759 
	C7.278957,513.325684 8.169530,511.781799 10.553761,511.762146 
	C13.331738,511.739227 16.475159,510.776703 17.487410,514.842712 
	C22.692116,509.587860 38.132294,510.761810 40.629478,516.542969 
	C35.941631,520.637085 30.227596,518.547913 24.627224,518.983765 
z"/>
<path fill="#000000" opacity="1.000000" stroke="none" 
	d="
M18.876886,109.767014 
	C15.895535,109.726143 13.276322,109.654846 10.657297,109.661133 
	C7.982934,109.667549 7.227380,107.975197 7.279742,105.759926 
	C7.333558,103.483177 8.727886,102.692780 10.927662,102.731636 
	C13.586445,102.778587 16.329571,102.382706 17.567345,105.641655 
	C22.617809,100.378090 38.290394,101.745262 40.545612,107.771957 
	C33.662693,110.981026 26.420116,110.102646 18.876886,109.767014 
z"/>
<path fill="#000000" opacity="1.000000" stroke="none" 
	d="
M205.805115,301.516724 
	C202.888214,301.013916 202.674530,299.079681 202.679321,296.972473 
	C202.697830,288.839935 201.946945,280.614197 202.946960,272.606079 
	C203.664322,266.861328 204.771057,261.102753 205.254318,255.239822 
	C206.955429,257.819031 206.128601,260.616272 206.328018,263.286530 
	C206.485901,265.400391 207.322433,267.432617 207.635864,269.349518 
	C209.313400,279.609009 209.667389,289.991364 207.746918,300.310089 
	C207.662582,300.763275 206.731644,301.058868 205.805115,301.516724 
z"/>
<path fill="#000000" opacity="1.000000" stroke="none" 
	d="
M762.269348,191.417908 
	C761.976929,192.620468 761.836365,193.474655 761.397156,194.128098 
	C760.776184,195.052002 759.934631,195.827637 759.155762,196.702103 
	C757.375427,195.780502 756.060608,194.347931 756.023193,192.879715 
	C755.828796,185.255081 754.955444,177.431839 756.352417,170.063370 
	C757.192444,165.632294 757.242981,161.302368 757.725464,156.937256 
	C757.813904,156.137451 757.789062,155.280151 759.517029,154.445648 
	C760.770447,166.818375 763.108643,178.742294 762.269348,191.417908 
z"/>
<path fill="#000000" opacity="1.000000" stroke="none" 
	d="
M956.217773,350.711395 
	C953.470337,352.728943 954.977783,355.693451 953.910889,357.951538 
	C949.525146,349.501160 949.348694,327.607727 953.655762,318.932892 
	C959.481384,329.117645 956.463928,339.890778 956.217773,350.711395 
z"/>
<path fill="#000000" opacity="1.000000" stroke="none" 
	d="
M830.868835,248.037811 
	C830.958984,242.473953 830.118286,237.190567 834.836731,232.788574 
	C839.396851,244.251816 838.103577,255.617233 834.849365,267.791138 
	C830.273315,261.518677 830.822998,254.968704 830.868835,248.037811 
z"/>
<path fill="#000000" opacity="1.000000" stroke="none" 
	d="
M942.805908,338.003174 
	C943.153503,332.209930 941.256042,326.397430 946.433105,322.136047 
	C949.434631,324.683380 950.069092,328.234161 949.834351,331.851562 
	C949.357483,339.198639 950.891846,346.576080 947.728577,353.928650 
	C946.151672,357.593964 947.454224,362.498138 946.303589,366.891418 
	C947.901917,357.014557 941.256653,348.268250 942.805908,338.003174 
M945.582886,333.928497 
	C945.563232,338.635193 945.165894,343.373871 946.695862,347.938110 
	C946.695862,341.419006 946.695862,334.899872 946.695862,328.380768 
	C946.491943,328.377075 946.287964,328.373383 946.084045,328.369720 
	C945.948669,329.976868 945.813293,331.584045 945.582886,333.928497 
z"/>
<path fill="#000000" opacity="1.000000" stroke="none" 
	d="
M777.783325,210.553375 
	C777.364990,213.121536 776.485229,214.519089 773.810852,214.313797 
	C771.363281,214.125946 770.666626,212.555954 770.626038,210.625229 
	C770.532959,206.198380 769.821045,201.588028 772.079712,197.521042 
	C773.577026,194.824966 772.189819,191.520264 774.978333,188.104904 
	C774.969666,195.302032 778.390198,200.919312 777.488708,207.129578 
	C780.712097,208.125381 780.237549,205.320404 781.890015,204.152573 
	C784.038391,210.852844 780.121948,218.107559 784.333740,224.217575 
	C782.785461,226.113846 781.140381,225.652725 779.008118,224.524353 
	C781.054565,220.967514 780.704590,217.036789 780.606384,213.151276 
	C780.566589,211.578506 780.815735,209.447327 777.783325,210.553375 
z"/>
<path fill="#000000" opacity="1.000000" stroke="none" 
	d="
M902.384460,284.068237 
	C902.257568,285.201447 902.148926,285.973511 901.982117,287.158722 
	C898.490906,280.867950 897.105774,274.996521 901.600891,269.036346 
	C902.458984,269.190552 902.327759,270.122101 902.405579,270.861389 
	C902.560364,272.331573 903.073914,273.616394 904.746643,273.473511 
	C906.426331,273.330109 907.397156,272.070160 907.522827,270.429535 
	C907.687500,268.279449 907.566772,266.108124 907.714355,263.955902 
	C907.818909,262.430206 907.141785,260.637573 909.833801,258.811707 
	C911.265747,274.341644 910.008057,289.146606 910.248413,303.948029 
	C909.426331,303.981934 908.604248,304.015839 907.782166,304.049744 
	C907.782166,294.932037 907.782166,285.814331 907.782166,276.696655 
	C907.220825,276.634247 906.659546,276.571838 906.098206,276.509430 
	C904.866394,278.908661 903.634583,281.307892 902.384460,284.068237 
z"/>
<path fill="#000000" opacity="1.000000" stroke="none" 
	d="
M436.570740,263.387573 
	C434.812256,262.943146 434.502899,261.856934 434.502441,260.617584 
	C434.498871,251.140823 432.637665,241.422180 434.816711,232.257202 
	C436.871521,223.614639 436.020447,214.951492 437.311096,206.362625 
	C438.902588,209.297699 437.966370,212.435959 438.356201,215.431885 
	C440.206329,229.650970 442.057587,243.858093 441.154358,258.264587 
	C440.970703,261.193787 440.824188,263.739838 436.570740,263.387573 
M438.614990,250.380814 
	C438.630951,246.895508 438.653320,243.410217 438.661560,239.924896 
	C438.678802,232.603317 438.675751,232.603317 436.787903,229.947342 
	C436.787903,240.202194 436.787903,249.932709 436.787903,259.663239 
	C439.204498,257.124817 438.400543,254.147964 438.614990,250.380814 
z"/>
<path fill="#000000" opacity="1.000000" stroke="none" 
	d="
M211.726807,250.572464 
	C211.863785,249.374771 211.862579,248.523087 213.218719,247.827606 
	C215.899612,260.971741 218.309158,273.820557 212.624130,287.994598 
	C211.516235,282.633118 210.540344,278.340698 209.754562,274.013763 
	C208.330780,266.173584 211.628937,258.706970 211.726807,250.572464 
z"/>
<path fill="#000000" opacity="1.000000" stroke="none" 
	d="
M493.955322,150.593246 
	C494.016815,147.888840 495.323517,146.509201 497.305298,145.502350 
	C500.218018,146.459183 501.158203,148.605103 501.113312,151.562881 
	C500.987000,159.877914 500.863892,168.196030 500.970032,176.509995 
	C501.010223,179.656052 498.958588,181.627380 497.720612,184.157761 
	C494.250305,181.092316 493.909332,177.186234 493.988434,172.975113 
	C494.125854,165.661224 493.966644,158.341766 493.955322,150.593246 
M496.800934,149.465790 
	C496.800934,159.223724 496.800934,168.981674 496.800934,178.900665 
	C498.412323,178.511215 498.611023,177.829529 498.605713,177.180557 
	C498.531311,168.044540 498.432892,158.908630 498.296661,149.773346 
	C498.288818,149.249664 497.781555,148.948608 496.800934,149.465790 
z"/>
<path fill="#000000" opacity="1.000000" stroke="none" 
	d="
M839.706665,251.366592 
	C838.238342,247.072617 837.870544,243.031387 839.948975,239.166672 
	C841.505188,236.273010 839.716431,232.899902 841.468384,229.756454 
	C843.813416,233.138458 840.315125,238.171982 844.976685,240.520874 
	C847.092957,240.036652 847.145691,237.426788 848.850281,236.460205 
	C853.713257,242.377487 853.852112,249.939621 849.248169,255.608093 
	C845.969910,252.413132 845.969910,252.413132 845.249451,247.768112 
	C843.720520,249.409042 844.399048,254.074722 839.706665,251.366592 
M848.067383,246.379303 
	C848.205078,247.487930 847.686951,248.867325 849.474487,249.838806 
	C849.808777,247.056747 850.157654,244.756958 849.223511,242.274628 
	C847.693115,243.357529 848.222290,244.599289 848.067383,246.379303 
z"/>
<path fill="#000000" opacity="1.000000" stroke="none" 
	d="
M455.283020,328.603119 
	C455.284027,332.241394 452.157501,334.434601 452.676605,337.867584 
	C448.160187,327.171448 446.880035,316.591339 451.978577,304.880676 
	C457.607880,312.800446 454.382263,320.748138 455.283020,328.603119 
z"/>
<path fill="#000000" opacity="1.000000" stroke="none" 
	d="
M462.596680,290.867920 
	C462.227692,300.198425 463.354095,309.271332 459.506866,317.555115 
	C453.979370,302.600800 457.405701,287.442596 459.696045,272.212585 
	C459.400055,278.527100 461.655457,284.367676 462.596680,290.867920 
z"/>
<path fill="#000000" opacity="1.000000" stroke="none" 
	d="
M506.198914,187.912964 
	C506.065887,190.037491 506.628967,191.909363 504.640106,193.875290 
	C502.042725,180.022278 499.955505,166.885941 505.228912,152.482224 
	C507.069550,162.451660 509.854675,171.218460 507.448914,180.292053 
	C506.807861,182.709946 506.219543,185.002701 506.198914,187.912964 
z"/>
<path fill="#000000" opacity="1.000000" stroke="none" 
	d="
M925.676636,339.683533 
	C927.088623,348.248688 928.787292,356.544769 924.710876,364.594208 
	C924.148621,365.704590 924.184875,367.118164 923.893127,368.660797 
	C919.501343,358.959045 919.411804,346.437225 923.587219,334.798615 
	C924.231628,336.433594 924.816711,337.918060 925.676636,339.683533 
z"/>
<path fill="#000000" opacity="1.000000" stroke="none" 
	d="
M293.678009,268.804596 
	C295.160461,258.214905 290.771820,248.480209 291.684540,238.424698 
	C292.238312,232.323822 294.509430,226.472229 293.746216,219.009827 
	C298.381500,226.206757 298.767609,265.347137 294.932831,275.377533 
	C293.060699,273.444336 293.938538,271.218018 293.678009,268.804596 
M295.839172,244.200653 
	C295.719269,241.544769 296.266296,238.796143 294.915070,235.077332 
	C292.996307,240.598389 293.196869,244.854279 293.845490,249.857437 
	C296.290314,248.035873 295.590088,246.416870 295.839172,244.200653 
z"/>
<path fill="#000000" opacity="1.000000" stroke="none" 
	d="
M606.668213,119.034241 
	C605.749329,112.810043 608.192322,107.610710 609.192993,101.999176 
	C614.156189,113.322868 614.265259,119.721855 609.847351,135.557129 
	C606.578796,130.214508 606.578796,130.214508 606.668213,119.034241 
z"/>
<path fill="#000000" opacity="1.000000" stroke="none" 
	d="
M191.343567,243.103577 
	C191.412445,247.679810 191.535095,251.627716 192.946167,255.730820 
	C194.091431,259.061127 194.143906,263.194427 192.095154,266.853729 
	C190.482971,269.733246 191.575699,273.070404 191.278839,276.188324 
	C191.102280,278.042511 191.813004,280.062653 190.229797,282.271057 
	C186.106689,266.746033 187.489578,251.785339 189.944351,235.613846 
	C191.823883,238.509094 191.153992,240.658264 191.343567,243.103577 
z"/>
<path fill="#000000" opacity="1.000000" stroke="none" 
	d="
M625.389221,177.585144 
	C624.954102,178.765656 624.184326,179.658844 623.636108,178.544510 
	C622.359253,175.949387 620.518738,173.639801 620.664673,170.338150 
	C620.935608,164.207565 620.823669,158.049988 620.617126,151.912186 
	C620.492310,148.202469 621.630493,145.165985 624.935486,141.598419 
	C628.821960,153.975037 628.558533,165.554611 625.389221,177.585144 
M623.349426,155.910522 
	C623.354614,158.734558 623.274963,161.562027 623.389160,164.381653 
	C623.500244,167.124908 622.741516,170.064560 624.932251,173.489273 
	C624.932251,164.860107 624.932251,157.296860 624.932251,148.774567 
	C623.151489,151.372589 623.497314,153.252579 623.349426,155.910522 
z"/>
<path fill="#000000" opacity="1.000000" stroke="none" 
	d="
M597.359192,123.892426 
	C598.655212,133.100113 593.999268,141.135956 594.262390,149.819489 
	C593.676025,136.716827 586.347961,123.680275 594.124268,110.068039 
	C596.993347,114.473953 597.855164,118.787659 597.359192,123.892426 
M593.454651,125.694893 
	C593.654663,127.848381 593.854675,130.001862 594.054688,132.155350 
	C594.304993,132.118256 594.555237,132.081161 594.805542,132.044083 
	C594.805542,127.085037 594.805542,122.125992 594.805542,117.166954 
	C592.871582,119.673065 593.567810,122.320175 593.454651,125.694893 
z"/>
<path fill="#000000" opacity="1.000000" stroke="none" 
	d="
M531.782715,153.479248 
	C534.115356,150.342545 533.588928,147.102676 533.705444,143.969116 
	C533.895203,138.864532 533.189453,133.709122 534.261414,128.685974 
	C535.687439,128.528839 535.929626,129.380936 535.983948,130.186386 
	C536.625427,139.701401 536.660095,149.204056 537.903259,158.751602 
	C538.794922,165.599762 535.382446,172.907150 536.346497,180.380997 
	C535.520691,180.369095 534.694946,180.357193 533.869141,180.345291 
	C535.141235,171.280746 530.966248,162.917755 531.782715,153.479248 
M535.915405,157.722488 
	C535.748169,156.589310 536.283325,155.130997 534.283691,154.453629 
	C534.053589,157.164124 533.257507,159.609222 534.452515,162.216248 
	C536.268555,161.123123 535.719849,159.661591 535.915405,157.722488 
z"/>
<path fill="#000000" opacity="1.000000" stroke="none" 
	d="
M236.344727,302.615723 
	C236.267776,304.350616 236.546051,305.708710 235.481155,307.212250 
	C234.021423,304.313965 234.423126,301.442627 234.739410,298.851471 
	C236.001068,288.515350 231.425476,278.740021 232.107101,268.499023 
	C232.261139,266.184875 232.442688,263.872192 232.644531,261.561707 
	C232.800262,259.778687 233.883331,258.880981 235.599945,258.835083 
	C237.344849,258.788452 238.695999,259.784302 238.683731,261.439484 
	C238.628128,268.939270 240.824600,276.605621 237.024170,283.859741 
	C235.652740,286.477478 236.472305,289.415558 236.375900,292.205933 
	C236.261292,295.523407 236.347427,298.847809 236.344727,302.615723 
M236.658127,274.106720 
	C236.268143,270.155243 237.485672,266.045013 235.281662,262.226868 
	C234.428482,268.058441 234.240295,273.879486 234.876968,280.299103 
	C237.066620,278.564972 236.475204,276.646606 236.658127,274.106720 
z"/>
<path fill="#000000" opacity="1.000000" stroke="none" 
	d="
M872.555908,276.888855 
	C872.339478,278.001007 872.210999,278.784912 872.015747,279.976349 
	C867.288818,270.825928 867.103821,251.504990 871.471680,247.461685 
	C876.250244,250.878326 877.016907,269.910126 872.555908,276.888855 
M872.242676,262.378235 
	C871.984192,259.105164 873.613220,255.656418 871.174194,251.534775 
	C871.174194,258.821411 871.174194,265.058533 871.174194,271.295654 
	C873.068787,268.657959 872.523926,265.924225 872.242676,262.378235 
z"/>
<path fill="#000000" opacity="1.000000" stroke="none" 
	d="
M305.747498,291.302185 
	C303.356628,294.505798 304.522888,297.794861 304.204498,300.870392 
	C303.958191,303.249176 304.970245,305.809937 302.633026,308.975555 
	C300.669464,301.697754 301.617279,294.862946 300.136658,288.304138 
	C298.765106,282.228638 297.574066,274.779999 302.902161,268.369873 
	C308.444000,275.535797 305.636658,283.448761 305.747498,291.302185 
M303.946075,285.937988 
	C303.755768,282.056610 304.556213,278.058075 302.433350,274.416656 
	C302.433350,279.427734 302.433350,284.438843 302.433350,289.913177 
	C304.127228,288.745483 303.772766,287.666962 303.946075,285.937988 
z"/>
<path fill="#000000" opacity="1.000000" stroke="none" 
	d="
M692.784302,169.347229 
	C691.901184,172.337875 692.946594,175.236435 691.344360,178.771957 
	C690.071045,169.135910 687.730103,160.594788 688.663391,151.671448 
	C688.863647,149.756470 689.596802,148.284973 691.360352,148.053818 
	C692.530090,147.900482 694.208435,148.759598 694.316040,150.207428 
	C694.785767,156.527267 696.401245,162.965881 692.784302,169.347229 
z"/>
<path fill="#000000" opacity="1.000000" stroke="none" 
	d="
M239.659515,297.795959 
	C239.636246,286.229980 239.636246,286.229980 242.873489,281.652771 
	C248.303986,287.669708 247.083603,295.139771 245.638519,301.393829 
	C244.371399,306.877777 244.707504,312.126678 244.229095,317.469147 
	C244.063828,319.314545 245.012177,321.443390 242.136414,323.714996 
	C240.980835,314.810089 242.916229,306.186523 239.659515,297.795959 
M243.930054,290.247864 
	C243.720840,289.210205 244.288040,287.898590 242.304947,286.986938 
	C241.399918,291.673340 240.764252,296.067993 242.797440,300.507263 
	C244.263489,297.457855 243.787659,294.213379 243.930054,290.247864 
z"/>
<path fill="#000000" opacity="1.000000" stroke="none" 
	d="
M940.393677,320.474091 
	C940.031616,323.379395 941.010071,326.084747 938.805359,328.350006 
	C937.724121,320.190399 934.543640,312.357910 935.889771,303.939240 
	C936.202698,301.982422 937.629883,301.760468 939.231506,301.783417 
	C941.026123,301.809143 942.133057,302.692230 942.103943,304.487061 
	C942.019043,309.717651 943.353821,315.114014 940.393677,320.474091 
z"/>
<path fill="#000000" opacity="1.000000" stroke="none" 
	d="
M917.545044,363.418091 
	C914.113953,363.960663 912.920898,362.281616 912.894165,359.532288 
	C912.837708,353.730225 912.918274,347.926636 912.837341,342.125122 
	C912.798096,339.308197 915.541992,338.139587 916.152466,335.626770 
	C920.724976,342.144745 921.637329,357.588013 917.545044,363.418091 
M915.298279,347.511017 
	C916.021057,351.814331 914.430725,356.301331 916.527954,360.529938 
	C918.091614,354.102570 917.502625,347.675598 917.559692,340.031311 
	C914.738953,342.791748 915.646301,344.908386 915.298279,347.511017 
z"/>
<path fill="#000000" opacity="1.000000" stroke="none" 
	d="
M371.336243,160.745377 
	C370.742981,164.800537 373.291656,167.645126 373.540894,171.234024 
	C374.047089,178.522888 370.871399,185.106628 371.003571,192.754974 
	C363.112305,178.148499 368.975708,164.003922 370.232971,149.886292 
	C372.026520,153.221405 371.033722,156.821030 371.336243,160.745377 
M369.351593,173.869049 
	C369.677002,175.833435 368.614044,178.072891 370.878937,180.469025 
	C371.930054,175.827606 371.977875,171.938904 370.985748,167.339279 
	C368.983154,169.510696 369.615051,171.403641 369.351593,173.869049 
z"/>
<path fill="#000000" opacity="1.000000" stroke="none" 
	d="
M36.228760,63.781937 
	C39.584656,61.676857 39.411694,64.771774 41.127296,66.577217 
	C34.210842,68.417595 27.905340,69.264061 21.431782,68.456017 
	C19.873726,68.261528 19.343710,66.824944 19.357904,65.435555 
	C19.373621,63.897099 19.830915,61.993137 21.624018,62.111801 
	C26.429737,62.429832 31.529747,60.665539 36.228760,63.781937 
z"/>
<path fill="#000000" opacity="1.000000" stroke="none" 
	d="
M860.851379,249.377655 
	C860.685303,241.133270 860.685303,241.133270 864.204468,236.650955 
	C868.213623,241.420776 869.165527,247.533340 866.288696,252.802658 
	C864.363892,256.328186 866.398254,260.312653 864.278198,264.681061 
	C861.790894,259.490997 864.795898,253.736221 860.851379,249.377655 
z"/>
<path fill="#000000" opacity="1.000000" stroke="none" 
	d="
M770.296997,196.451660 
	C769.950439,199.097321 768.597961,200.745453 767.361938,202.501587 
	C762.063782,197.058334 761.840393,185.023560 766.915771,172.550369 
	C771.821045,180.075989 770.015503,188.209213 770.296997,196.451660 
M767.886108,185.869568 
	C767.749329,184.373169 768.337341,182.698441 766.377930,180.460266 
	C765.877869,186.443985 765.826782,191.339584 766.410828,196.230209 
	C766.902832,196.251236 767.394897,196.272263 767.886902,196.293304 
	C767.886902,193.108826 767.886902,189.924362 767.886108,185.869568 
z"/>
<path fill="#000000" opacity="1.000000" stroke="none" 
	d="
M957.657715,378.980774 
	C957.856689,375.511353 956.762329,372.031036 960.902954,370.196533 
	C966.633484,373.026581 965.145142,378.905823 963.996948,382.658997 
	C962.540222,387.420898 962.628784,392.027222 962.147400,396.717957 
	C962.081726,397.357605 961.837524,398.008026 960.073792,398.235474 
	C960.229858,391.829803 958.647217,385.685333 957.657715,378.980774 
z"/>
<path fill="#000000" opacity="1.000000" stroke="none" 
	d="
M613.674805,145.497742 
	C613.598694,139.060028 613.548767,133.069183 613.504211,127.078285 
	C613.486084,124.643555 614.134949,122.719139 617.084473,122.817741 
	C619.717590,122.905762 620.332825,124.647957 620.322266,126.906288 
	C620.294983,132.731781 620.308044,138.557449 620.295410,144.383026 
	C620.291260,146.289948 620.157288,148.190079 617.716003,148.522659 
	C615.713806,148.795425 614.043030,148.354294 613.674805,145.497742 
M616.096497,142.634872 
	C616.302429,143.520676 615.772888,144.628464 617.315979,145.522125 
	C617.315979,139.074356 617.315979,132.909531 617.315979,126.744705 
	C615.640808,131.728180 616.188354,136.794952 616.096497,142.634872 
z"/>
<path fill="#000000" opacity="1.000000" stroke="none" 
	d="
M827.291382,269.197632 
	C826.952942,270.739532 825.543762,271.473541 825.614197,270.125397 
	C825.854980,265.519409 823.208679,261.734741 822.710449,257.387146 
	C822.169861,252.670074 824.344177,248.806656 825.956116,244.490082 
	C830.775818,253.244919 830.844849,254.828415 827.819092,263.404968 
	C827.233337,265.065338 827.463989,267.013733 827.291382,269.197632 
z"/>
<path fill="#000000" opacity="1.000000" stroke="none" 
	d="
M334.250854,195.429764 
	C333.986542,198.289078 334.575867,200.819016 333.470367,203.369156 
	C329.670258,198.217682 329.450165,179.904266 333.347595,171.422058 
	C332.988464,179.319168 339.058502,186.835922 334.250854,195.429764 
z"/>
<path fill="#000000" opacity="1.000000" stroke="none" 
	d="
M194.381363,282.340088 
	C194.462112,277.955902 194.628006,273.964325 194.573074,269.975861 
	C194.534500,267.174774 195.035309,264.717133 197.466843,262.989075 
	C202.194824,266.489563 200.370071,271.197205 199.757950,276.397583 
	C198.171677,273.517822 199.720276,270.370148 196.878113,267.583954 
	C196.878113,278.168457 196.878113,287.934021 196.878113,299.201172 
	C199.234268,295.670990 198.622223,292.886719 198.746399,290.336670 
	C198.879456,287.604370 198.776398,284.860626 199.243744,282.144714 
	C201.295303,291.176392 200.148987,300.002380 197.254425,308.846069 
	C197.218246,304.412079 195.072922,300.440063 194.565750,296.167999 
	C194.040649,291.744720 194.399811,287.216431 194.381363,282.340088 
z"/>
<path fill="#000000" opacity="1.000000" stroke="none" 
	d="
M550.349060,78.367653 
	C550.446228,82.880890 550.182129,86.811897 552.240662,90.815544 
	C554.049805,94.334030 552.906433,98.660400 552.409180,102.626228 
	C552.156006,104.645714 550.562500,104.792007 549.051147,104.788216 
	C547.246277,104.783676 546.467468,103.759903 546.378357,101.923576 
	C545.921570,92.512711 549.714905,83.591293 548.700562,73.510437 
	C550.743164,75.238937 550.188477,76.665192 550.349060,78.367653 
z"/>
<path fill="#000000" opacity="1.000000" stroke="none" 
	d="
M29.621002,250.619476 
	C31.741655,251.901276 32.995544,249.881729 34.589279,249.881226 
	C37.109989,249.880432 39.637684,250.535919 39.825008,253.358368 
	C40.006222,256.088745 37.304470,256.094543 35.398792,256.156982 
	C31.262346,256.292389 27.116899,256.123871 22.975897,256.162170 
	C21.084429,256.179626 19.463520,255.839584 19.706020,253.535110 
	C19.895424,251.735245 20.236725,249.778915 22.951859,250.107651 
	C25.059147,250.362793 27.191355,250.412125 29.621002,250.619476 
z"/>
<path fill="#000000" opacity="1.000000" stroke="none" 
	d="
M268.338806,272.042542 
	C268.773804,278.133026 270.545990,283.932678 266.773468,289.308411 
	C266.035858,290.359558 266.348938,292.215942 266.343170,293.701569 
	C266.310211,302.195709 266.361298,310.690308 266.296844,319.184082 
	C266.284973,320.748077 266.886871,322.495209 265.267303,324.117004 
	C264.104126,320.344757 264.726868,316.685272 264.691315,313.105377 
	C264.579834,301.887024 265.151276,290.642792 262.621246,279.567322 
	C261.272278,273.662140 265.478699,268.670166 265.347961,262.894592 
	C267.184845,265.638641 265.126678,269.417236 268.338806,272.042542 
M264.376038,282.658966 
	C264.533905,283.544312 264.112732,284.779846 266.073700,284.839417 
	C267.000702,280.974640 267.082336,277.160065 265.569611,273.344940 
	C263.737396,276.039337 264.586975,279.028168 264.376038,282.658966 
z"/>
<path fill="#000000" opacity="1.000000" stroke="none" 
	d="
M401.691650,225.760727 
	C401.553864,231.800018 401.553864,237.414322 401.553864,243.215515 
	C398.443878,242.746628 399.111450,240.924835 399.012360,239.638641 
	C398.547058,233.598572 399.919312,227.432785 397.043884,221.538589 
	C396.207336,219.823868 396.857513,217.269806 397.161682,215.148590 
	C397.406097,213.444199 398.819794,212.736542 400.506378,212.816315 
	C402.306458,212.901459 403.314240,213.971436 403.259644,215.705643 
	C403.157196,218.960602 404.154633,222.405045 401.691650,225.760727 
z"/>
<path fill="#000000" opacity="1.000000" stroke="none" 
	d="
M893.182007,298.388824 
	C892.880859,291.762177 889.575745,285.793976 890.584839,279.204987 
	C890.932495,276.935394 891.152344,274.973938 893.589355,273.877228 
	C899.645264,277.266937 897.478149,283.229492 896.537964,287.632965 
	C895.775330,291.205109 894.818176,295.050934 893.182007,298.388824 
z"/>
<path fill="#000000" opacity="1.000000" stroke="none" 
	d="
M156.680374,231.277985 
	C156.969330,227.193054 159.843872,224.428177 159.622101,220.621887 
	C167.297440,232.460602 160.188217,244.372482 160.237305,256.269012 
	C160.133362,247.884888 156.314301,240.143417 156.680374,231.277985 
M159.440414,238.108673 
	C159.785431,238.811783 160.679108,239.198196 160.909622,238.557831 
	C161.952255,235.661423 162.301071,232.705261 160.397034,229.171783 
	C158.714111,232.243011 159.434921,234.891800 159.440414,238.108673 
z"/>
<path fill="#000000" opacity="1.000000" stroke="none" 
	d="
M930.646545,310.798981 
	C930.647400,307.584076 930.647400,304.821594 930.647400,301.933990 
	C931.532532,302.151703 932.045654,302.248505 932.041626,302.281097 
	C931.091980,309.929810 934.872314,316.952515 934.965454,324.444885 
	C934.997253,327.001099 935.605103,330.516541 931.872864,330.687134 
	C927.818787,330.872498 929.108643,327.186523 928.636536,324.770691 
	C927.701538,319.986572 930.393127,315.813751 930.646545,310.798981 
z"/>
<path fill="#000000" opacity="1.000000" stroke="none" 
	d="
M642.842407,178.598816 
	C640.381165,183.607193 640.095215,188.642899 640.264404,194.837524 
	C636.805603,187.007568 636.690063,165.287796 639.545654,155.897827 
	C640.651184,163.322983 641.756714,170.748138 642.842407,178.598816 
z"/>
<path fill="#000000" opacity="1.000000" stroke="none" 
	d="
M514.299561,164.918320 
	C510.581177,166.011978 508.895355,164.734604 508.884155,161.216766 
	C508.868927,156.427643 508.820892,151.638611 508.779480,146.849594 
	C508.758240,144.392334 509.512512,142.630402 512.381165,142.611298 
	C515.313538,142.591766 515.429260,144.641708 515.314636,146.700439 
	C514.980408,152.704178 517.717712,158.824844 514.299561,164.918320 
M511.263794,154.419159 
	C511.489258,156.738312 510.709290,159.239578 512.705627,162.271652 
	C514.090759,156.303925 513.630188,151.346024 512.990295,146.380219 
	C510.672333,148.558517 511.534546,151.142929 511.263794,154.419159 
z"/>
<path fill="#000000" opacity="1.000000" stroke="none" 
	d="
M603.186462,119.071564 
	C603.428162,120.998924 603.151306,122.683540 604.439941,124.085175 
	C605.660339,125.412628 605.973267,127.468857 605.344238,128.797363 
	C602.121582,135.604416 603.860046,142.812836 603.219543,149.813690 
	C603.177612,150.272247 602.857300,150.705338 602.635315,151.222778 
	C600.095520,150.283600 601.150513,148.136429 601.018677,146.531448 
	C600.550781,140.833588 601.772400,135.108307 599.099121,129.452774 
	C597.155212,125.340446 602.058411,122.076591 602.296387,117.964432 
	C602.298035,117.936325 602.643433,117.862267 602.678345,117.912987 
	C602.860229,118.176933 602.993347,118.474403 603.186462,119.071564 
z"/>
<path fill="#000000" opacity="1.000000" stroke="none" 
	d="
M149.712555,235.863144 
	C149.733521,233.432587 149.697250,231.453918 149.794403,229.481842 
	C149.890320,227.535370 151.092026,226.408447 152.952286,226.385864 
	C154.610931,226.365723 155.855118,227.479828 155.948227,229.120651 
	C156.249176,234.423691 157.529068,239.968933 152.994156,244.534363 
	C150.045990,242.420670 149.450470,239.544189 149.712555,235.863144 
z"/>
<path fill="#000000" opacity="1.000000" stroke="none" 
	d="
M354.922302,143.259796 
	C355.383789,143.429153 355.592560,143.555389 355.589783,143.676758 
	C355.385437,152.553360 357.974060,161.145355 358.262024,169.963196 
	C358.339447,172.334381 358.875549,175.262955 354.910065,175.245346 
	C350.837982,175.227264 351.538574,172.117798 351.737793,169.888229 
	C352.533478,160.983673 353.602722,152.103577 354.922302,143.259796 
M354.311615,163.846298 
	C354.037109,166.975708 352.992188,170.123474 354.675629,174.680130 
	C355.934448,169.983032 356.797668,166.745285 354.311615,163.846298 
z"/>
<path fill="#000000" opacity="1.000000" stroke="none" 
	d="
M696.714966,139.213425 
	C696.728699,136.322617 698.156616,135.622620 700.297058,135.791519 
	C702.499939,135.965363 702.881592,137.596649 702.963562,139.315323 
	C703.206848,144.413635 703.627563,149.572342 699.576050,153.669724 
	C695.755737,149.706970 696.726746,144.585770 696.714966,139.213425 
z"/>
<path fill="#000000" opacity="1.000000" stroke="none" 
	d="
M269.666992,299.796417 
	C269.676605,296.841705 269.695099,294.353394 269.698151,291.865112 
	C269.700745,289.747986 270.753540,288.160950 272.781647,288.038452 
	C274.597748,287.928772 276.011688,289.519684 276.027679,291.218933 
	C276.070557,295.782227 277.488617,300.546478 275.000214,304.850006 
	C273.668243,307.153534 274.984863,310.106049 272.545288,312.283325 
	C272.408417,308.000061 269.912384,304.438416 269.666992,299.796417 
M273.913818,295.826996 
	C273.661743,294.686432 274.422150,293.215302 272.366882,292.180054 
	C271.851654,295.511383 271.541290,298.506195 272.726959,302.186554 
	C274.304779,300.086243 273.685577,298.260925 273.913818,295.826996 
z"/>
<path fill="#000000" opacity="1.000000" stroke="none" 
	d="
M578.838501,89.621628 
	C584.227478,94.757980 584.527893,103.273643 579.485596,109.492828 
	C575.367920,104.775215 576.227173,99.449036 577.548035,94.206879 
	C577.898987,92.814278 578.672424,91.487297 578.838501,89.621628 
z"/>
<path fill="#000000" opacity="1.000000" stroke="none" 
	d="
M815.006165,258.781250 
	C815.380615,263.866211 815.399841,268.475647 811.513245,271.865051 
	C807.500854,266.261932 807.284790,259.011566 811.247681,254.885681 
	C813.124390,255.335876 814.296753,256.565399 815.006165,258.781250 
z"/>
<path fill="#000000" opacity="1.000000" stroke="none" 
	d="
M729.901123,190.226471 
	C727.312439,190.199982 726.666260,188.875153 726.675232,186.970413 
	C726.694641,182.836182 725.826355,178.447296 726.938171,174.634033 
	C728.237549,170.177429 728.553345,165.705643 728.936401,161.085205 
	C729.516785,161.266388 729.976990,161.354568 729.973572,161.416840 
	C729.523376,169.471298 734.841980,176.772217 733.026855,185.022568 
	C732.582153,187.043594 733.248962,189.507874 729.901123,190.226471 
M729.519958,175.327927 
	C727.188232,179.186447 728.528259,183.016769 729.375732,186.860062 
	C731.173523,183.156830 730.945129,179.390228 729.519958,175.327927 
z"/>
<path fill="#000000" opacity="1.000000" stroke="none" 
	d="
M179.606720,249.153854 
	C179.353897,245.549545 181.527283,243.396332 182.594498,240.512924 
	C187.724960,247.918716 187.803680,253.290482 182.980209,257.311249 
	C178.898346,256.067200 179.700882,252.622879 179.606720,249.153854 
z"/>
<path fill="#000000" opacity="1.000000" stroke="none" 
	d="
M815.707642,261.357666 
	C815.584717,258.594635 816.927490,257.303589 818.835449,256.413239 
	C823.571472,259.809143 823.648438,263.613434 818.995544,273.388245 
	C816.756958,269.612823 815.217224,266.020111 815.707642,261.357666 
z"/>
<path fill="#000000" opacity="1.000000" stroke="none" 
	d="
M661.246338,151.317017 
	C665.082764,159.814957 665.082764,159.814957 661.497925,171.906357 
	C659.046875,165.162384 656.485352,158.421234 661.246338,151.317017 
z"/>
<path fill="#000000" opacity="1.000000" stroke="none" 
	d="
M992.292969,394.791992 
	C991.970642,395.722076 991.734558,396.311951 991.457092,397.005249 
	C986.614319,390.989899 986.490845,387.736298 990.690186,380.307831 
	C994.977417,385.654907 995.369812,388.941345 992.292969,394.791992 
z"/>
<path fill="#000000" opacity="1.000000" stroke="none" 
	d="
M881.055176,275.024750 
	C879.261292,278.810913 881.457458,282.865784 879.086792,286.633850 
	C877.246216,284.895477 877.826172,283.010559 877.737854,281.346436 
	C877.599121,278.730896 877.924805,276.135559 876.367065,273.667114 
	C875.657837,272.543091 875.845947,270.793182 875.803467,269.322083 
	C875.741821,267.188965 876.998413,265.586853 878.970459,265.655548 
	C880.835327,265.720490 882.142029,267.251343 882.188416,269.388824 
	C882.227783,271.202362 882.459045,273.050201 881.055176,275.024750 
z"/>
<path fill="#000000" opacity="1.000000" stroke="none" 
	d="
M350.498474,156.899811 
	C350.350647,159.444351 351.419983,162.310440 347.529877,162.194580 
	C344.170746,162.094528 344.567627,159.512085 344.716492,157.497299 
	C345.153778,151.580078 342.763428,145.216492 347.431671,139.667221 
	C352.055237,144.735641 350.612640,150.750565 350.498474,156.899811 
M348.231598,158.393433 
	C348.247009,153.949875 349.180206,149.460236 347.447540,145.069748 
	C346.032776,149.774139 345.986816,154.531235 346.935913,159.302505 
	C347.026642,159.758499 347.765259,159.395844 348.231598,158.393433 
z"/>
<path fill="#000000" opacity="1.000000" stroke="none" 
	d="
M668.644165,185.424576 
	C668.119568,179.175659 669.812439,173.247650 666.768738,167.516357 
	C665.176453,164.518021 669.686890,162.296616 669.199341,158.912338 
	C671.404175,163.106140 674.036072,166.382706 670.895508,171.753510 
	C668.856384,175.240799 670.416382,180.835526 670.374146,185.486130 
	C670.358398,187.227417 670.371704,188.968994 670.371704,191.711487 
	C667.942505,189.358734 668.868408,187.484314 668.644165,185.424576 
z"/>
<path fill="#000000" opacity="1.000000" stroke="none" 
	d="
M318.324463,260.100098 
	C318.176300,261.104584 318.039734,261.718140 317.727753,263.119568 
	C315.981018,259.845642 316.945282,257.065186 316.651184,254.449387 
	C315.834412,247.184509 318.398865,239.681244 314.664124,232.564438 
	C313.323273,230.009308 316.708160,228.527084 317.398285,226.192612 
	C320.418274,229.492386 320.358582,232.328934 318.811554,236.489014 
	C317.291931,240.575317 318.385590,245.637161 318.352020,250.271042 
	C318.329193,253.416962 318.340179,256.563110 318.324463,260.100098 
z"/>
<path fill="#000000" opacity="1.000000" stroke="none" 
	d="
M559.487427,84.663834 
	C556.837769,86.713844 554.439575,86.441780 554.011658,83.476974 
	C553.585449,80.524391 552.015076,76.611168 555.993469,74.696129 
	C558.252808,73.608574 559.804993,75.211510 560.066833,77.522758 
	C560.324036,79.792297 560.513123,82.119827 559.487427,84.663834 
z"/>
<path fill="#000000" opacity="1.000000" stroke="none" 
	d="
M794.846680,244.364868 
	C795.800842,243.250610 795.522522,241.664978 797.061340,241.494247 
	C801.676819,247.794022 801.731140,250.451050 797.151489,255.370819 
	C793.165894,252.516815 792.758423,248.890549 794.846680,244.364868 
z"/>
<path fill="#000000" opacity="1.000000" stroke="none" 
	d="
M378.140228,206.794052 
	C377.829315,207.941620 377.616577,208.748505 376.660370,208.993729 
	C376.660370,203.017838 376.678314,197.128113 376.649567,191.238617 
	C376.640808,189.441605 376.874786,187.630936 375.495270,186.033051 
	C374.936859,185.386246 374.522522,183.884705 374.887115,183.288620 
	C377.466003,179.072128 376.172791,174.258728 377.049072,169.503418 
	C378.483765,172.533310 379.030548,185.090088 378.840149,187.536362 
	C378.351379,193.815079 378.391449,200.134933 378.140228,206.794052 
z"/>
<path fill="#000000" opacity="1.000000" stroke="none" 
	d="
M853.354553,241.867920 
	C855.270569,238.248947 854.490173,234.225784 856.324341,229.841873 
	C858.920654,238.119781 858.432922,245.370880 856.553467,253.527664 
	C853.774719,249.782578 856.326233,245.150452 853.354553,241.867920 
z"/>
<path fill="#000000" opacity="1.000000" stroke="none" 
	d="
M655.331970,163.075455 
	C655.442139,166.290634 655.336304,168.929352 656.761841,171.678162 
	C658.126587,174.309494 654.654785,176.592957 654.587830,179.481842 
	C649.364136,172.370605 654.336487,165.092636 653.845764,157.888199 
	C655.734558,159.188843 655.177612,161.004318 655.331970,163.075455 
z"/>
<path fill="#000000" opacity="1.000000" stroke="none" 
	d="
M802.403442,245.044617 
	C807.076111,245.100143 808.461304,247.207825 807.078186,251.731003 
	C806.429199,253.853409 805.403137,255.860474 804.102600,258.992493 
	C803.218323,253.720047 798.786377,250.203110 802.403442,245.044617 
z"/>
<path fill="#000000" opacity="1.000000" stroke="none" 
	d="
M363.980957,163.684052 
	C365.371155,168.118530 362.362122,171.937210 363.226868,176.207474 
	C363.749451,178.788101 363.323059,181.560898 363.323059,184.620697 
	C360.644867,183.584061 361.096313,182.082550 360.959290,180.861053 
	C360.412170,175.983917 361.977112,170.959091 359.659180,166.167542 
	C358.927856,164.655762 360.543579,163.401520 361.592407,162.422516 
	C362.830048,161.267303 363.159180,162.792252 363.980957,163.684052 
z"/>
<path fill="#000000" opacity="1.000000" stroke="none" 
	d="
M584.577576,120.273422 
	C582.811218,116.818024 584.299011,114.617966 586.575439,112.661606 
	C590.967529,116.102852 591.048462,120.335327 586.689819,128.596664 
	C584.840393,126.055588 586.480713,122.883919 584.577576,120.273422 
z"/>
<path fill="#000000" opacity="1.000000" stroke="none" 
	d="
M673.719482,182.892624 
	C673.283569,179.716583 675.361572,178.087265 676.546631,175.996552 
	C681.495667,180.959351 681.511292,181.435654 676.757690,190.504837 
	C675.638367,187.836517 674.685303,185.564423 673.719482,182.892624 
z"/>
<path fill="#000000" opacity="1.000000" stroke="none" 
	d="
M681.872681,185.434570 
	C680.486511,181.797455 683.910522,179.835190 683.614685,176.163666 
	C689.153320,183.079193 683.916260,189.503479 684.834229,195.807800 
	C681.701782,192.936646 684.238525,188.776611 681.872681,185.434570 
z"/>
<path fill="#000000" opacity="1.000000" stroke="none" 
	d="
M563.122131,73.496994 
	C563.768860,72.366524 563.613647,71.169380 564.929932,70.769310 
	C571.084412,75.891075 565.329346,81.115433 564.959167,86.343170 
	C565.185242,81.973045 560.086792,78.547081 563.122131,73.496994 
z"/>
<path fill="#000000" opacity="1.000000" stroke="none" 
	d="
M174.823441,243.130219 
	C176.306076,244.162796 176.205460,244.171097 176.367111,246.131454 
	C176.790588,251.266556 174.998413,256.652832 178.367752,261.486053 
	C179.192734,262.669434 178.829605,264.383575 177.299484,265.390350 
	C176.345810,266.017822 175.617218,266.782928 174.306946,265.726990 
	C172.957062,264.639069 172.129379,263.171936 172.818558,261.885986 
	C175.989761,255.968491 174.053421,249.614029 174.823441,243.130219 
z"/>
<path fill="#000000" opacity="1.000000" stroke="none" 
	d="
M256.734985,287.017334 
	C256.368805,282.590912 256.510406,278.662018 255.153839,274.531555 
	C254.020950,271.082062 257.444000,266.996643 256.674347,261.588257 
	C261.643066,271.091949 258.119751,279.500275 258.094574,287.817444 
	C258.093811,288.064056 257.716766,288.309509 257.515137,288.555481 
	C257.265930,288.170380 257.016724,287.785278 256.734985,287.017334 
z"/>
<path fill="#000000" opacity="1.000000" stroke="none" 
	d="
M633.458313,183.276154 
	C633.206665,184.743118 633.629333,185.992950 632.366638,187.122681 
	C628.398132,181.626541 629.971863,176.269089 632.501709,170.865189 
	C632.004944,174.972061 637.155823,178.510376 633.458313,183.276154 
z"/>
<path fill="#000000" opacity="1.000000" stroke="none" 
	d="
M290.265900,235.124329 
	C288.081177,237.767700 288.317474,240.622421 288.338593,243.452469 
	C288.376526,248.538223 288.349304,253.624466 288.349304,258.710480 
	C287.782227,258.714630 287.215118,258.718750 286.648041,258.722870 
	C286.648041,254.013733 286.738983,249.302200 286.614563,244.596359 
	C286.537567,241.684540 287.059052,238.813858 285.211151,235.935791 
	C283.554840,233.356125 287.418823,231.660278 287.554840,228.946716 
	C287.973511,231.242264 289.649811,232.756927 290.265900,235.124329 
z"/>
<path fill="#000000" opacity="1.000000" stroke="none" 
	d="
M885.029663,275.407715 
	C885.253296,273.618683 884.687439,271.963531 886.702759,270.937836 
	C887.815491,273.529114 887.229614,276.139832 887.355713,278.665405 
	C887.478394,281.122131 886.838806,283.665009 887.913208,286.009705 
	C888.452271,287.186127 889.612122,288.127228 888.107544,289.427826 
	C886.362671,290.935944 885.108276,289.928406 883.520508,288.507172 
	C886.272400,284.640869 884.657959,280.143677 885.029663,275.407715 
z"/>
<path fill="#000000" opacity="1.000000" stroke="none" 
	d="
M9.241838,64.299072 
	C10.549303,60.592186 13.338775,62.323502 15.239655,62.626713 
	C16.642216,62.850441 16.658316,64.985886 16.264782,66.511276 
	C15.612391,69.040039 13.720541,68.364639 11.907565,68.345116 
	C9.131549,68.315216 8.373923,67.110222 9.241838,64.299072 
z"/>
<path fill="#000000" opacity="1.000000" stroke="none" 
	d="
M786.300781,223.470001 
	C787.595215,222.089890 788.470337,220.395782 790.491150,222.191116 
	C791.985840,223.519150 791.723999,224.528778 790.903198,226.029770 
	C789.216187,229.114792 791.406128,232.923538 788.836060,236.941833 
	C786.504028,232.338394 788.926575,227.434525 786.300781,223.470001 
z"/>
<path fill="#000000" opacity="1.000000" stroke="none" 
	d="
M468.349609,249.709686 
	C467.313232,253.752090 471.838837,257.747131 466.472046,261.850433 
	C466.472046,250.584717 466.472046,240.075287 466.472046,229.565872 
	C467.097748,229.557877 467.723450,229.549881 468.349152,229.541870 
	C468.349152,236.112259 468.349152,242.682632 468.349609,249.709686 
z"/>
<path fill="#000000" opacity="1.000000" stroke="none" 
	d="
M169.394928,260.483765 
	C172.237671,264.260712 168.900055,266.959381 168.999771,271.266724 
	C164.340714,264.995941 166.975296,260.041412 167.910217,254.393478 
	C169.969116,256.532532 169.069473,258.425781 169.394928,260.483765 
z"/>
<path fill="#000000" opacity="1.000000" stroke="none" 
	d="
M645.252563,175.959290 
	C643.031738,172.609055 646.710449,170.730545 645.887573,166.740158 
	C650.423279,172.243423 649.239502,176.584839 647.238159,181.446289 
	C645.067810,179.912567 646.088135,177.803925 645.252563,175.959290 
z"/>
<path fill="#000000" opacity="1.000000" stroke="none" 
	d="
M749.546509,192.498230 
	C751.503967,189.871750 749.925049,186.937134 751.670532,183.518768 
	C752.992554,190.531281 753.851379,196.537247 751.426758,203.426575 
	C750.632690,199.430374 749.975891,196.124802 749.546509,192.498230 
z"/>
<path fill="#000000" opacity="1.000000" stroke="none" 
	d="
M570.336792,93.127251 
	C571.124817,91.578995 571.720764,90.299713 572.388245,88.866837 
	C575.099609,92.867126 574.253784,96.618546 572.554504,100.968521 
	C571.006226,98.352692 569.614136,96.224281 570.336792,93.127251 
z"/>
<path fill="#000000" opacity="1.000000" stroke="none" 
	d="
M12.672611,250.691681 
	C15.726624,249.423401 15.977680,251.551865 16.373365,253.291519 
	C16.646179,254.490936 16.304363,255.662262 15.007156,256.139008 
	C13.747189,256.602081 12.728885,255.831772 11.899316,255.055664 
	C10.264231,253.525940 10.943882,252.140244 12.672611,250.691681 
z"/>
<path fill="#000000" opacity="1.000000" stroke="none" 
	d="
M226.668945,250.655914 
	C226.820831,249.669296 226.962265,249.059525 227.103699,248.449768 
	C228.121292,254.294037 229.934433,260.075562 227.485748,266.669983 
	C225.478516,261.028748 226.857574,255.988037 226.668945,250.655914 
z"/>
<path fill="#000000" opacity="1.000000" stroke="none" 
	d="
M37.027039,24.101107 
	C38.858280,23.774542 39.955742,24.339437 39.816872,26.034163 
	C39.720081,27.215382 38.393623,27.678532 37.578869,27.489954 
	C35.571884,27.025425 33.279091,28.314634 31.376923,26.453043 
	C32.022106,22.880695 34.950527,24.829464 37.027039,24.101107 
z"/>
<path fill="#000000" opacity="1.000000" stroke="none" 
	d="
M10.856533,25.138470 
	C11.893928,22.771294 13.295903,21.301506 15.474346,23.082897 
	C16.960936,24.298536 17.016531,26.401983 15.492470,27.456745 
	C13.423179,28.888840 11.781491,27.667931 10.856533,25.138470 
z"/>
<path fill="#000000" opacity="1.000000" stroke="none" 
	d="
M20.200701,27.167501 
	C19.952425,26.125900 19.525707,25.113443 19.861675,24.601883 
	C20.481007,23.658859 20.715857,24.859732 21.172428,25.119888 
	C22.859617,26.081263 22.282681,22.569992 24.146152,23.669003 
	C25.671576,24.389372 24.886335,26.314545 26.040232,27.563761 
	C24.040228,27.328920 22.207390,28.794437 20.200701,27.167501 
z"/>
</svg>